<svg xmlns="http://www.w3.org/2000/svg" width="1024" height="1024" viewBox="0 0 1024 1024" role="img" aria-label="Logo K'an">
  <rect width="1024" height="1024" fill="#08174b" />

  <!-- Deep background vignette to match brand image mood -->
  <radialGradient id="bgGlow" cx="50%" cy="44%" r="62%">
    <stop offset="0%" stop-color="#0d246b" stop-opacity="0.18" />
    <stop offset="100%" stop-color="#08174b" stop-opacity="0" />
  </radialGradient>
  <rect width="1024" height="1024" fill="url(#bgGlow)" />

  <!-- Warm copper icon -->
  <g transform="translate(200 190)" fill="none" stroke="#d7a07a" stroke-linecap="round" stroke-linejoin="round">
    <path d="M130 540V382c0-50 39-91 89-94h57c37-1 68-30 68-67s-29-66-66-66h-66c-50 3-84 44-84 92v106" stroke-width="30"/>
    <path d="M130 382c0-53 42-95 95-95h35" stroke-width="30"/>
    <path d="M156 443c26 0 48 22 48 48s-22 48-48 48-48-22-48-48" stroke-width="26"/>
    <path d="M299 540V390c0-43-35-78-78-78" stroke-width="30"/>

    <path d="M401 540V158h220v382" stroke-width="34"/>
    <path d="M445 126v32M512 126v32M579 126v32" stroke-width="34"/>
    <path d="M401 274h220M401 387h220" stroke-width="30"/>
    <path d="M401 540v-56c0-27 21-48 48-48h24v104" stroke-width="30"/>
  </g>
</svg>
