<svg xmlns="http://www.w3.org/2000/svg" width="512" height="512" viewBox="0 0 512 512" role="img" aria-label="Logo K'an">
  <rect width="512" height="512" rx="84" fill="#0a1a4f" />
  <g stroke="#d8a075" stroke-linecap="round" stroke-linejoin="round" fill="none">
    <path d="M168 356v-84c0-24 18-44 42-46h30c18-1 33-14 33-32s-14-32-32-32h-34c-24 2-41 22-41 46v56" stroke-width="16"/>
    <path d="M168 272c0-28 22-50 50-50h18" stroke-width="16"/>
    <path d="M182 304c14 0 26 12 26 26s-12 26-26 26-26-12-26-26" stroke-width="14"/>
    <path d="M248 356v-78c0-22-18-40-40-40" stroke-width="16"/>
    <path d="M300 356V164h132v192" stroke-width="18"/>
    <path d="M326 146v18M366 146v18M406 146v18" stroke-width="18"/>
    <path d="M300 222h132M300 280h132" stroke-width="16"/>
    <path d="M300 356v-30c0-14 11-26 25-26h14v56" stroke-width="16"/>
  </g>
</svg>
